<svg xmlns="http://www.w3.org/2000/svg" viewBox="0 0 1080 1920"><path fill="#28231d" d="M0 0h1080v1920H0z"/><g transform="rotate(-7 540 960)"><rect x="130" y="120" width="820" height="1100" rx="20" fill="#eee6d8"/><path d="M210 270h510M210 345h660M210 420h580" stroke="#332d27" stroke-width="24"/><path d="M210 560h300v360H210z" fill="#d56850"/><path d="M560 560h310M560 630h260M560 700h290M560 770h220M210 1010h660" stroke="#635a4e" stroke-width="17"/><circle cx="780" cy="1080" r="75" fill="#d8b45d"/></g><g transform="rotate(12 800 1450)"><rect x="500" y="1270" width="480" height="370" rx="24" fill="#161b1a" stroke="#779c91" stroke-width="7"/><path d="M570 1380l50 40-50 40m90 0h130" fill="none" stroke="#b9d77b" stroke-width="18" stroke-linecap="round"/></g><path d="M90 1560l250-70 80 290-250 70z" fill="#ad86a5" opacity=".65"/></svg>
